<svg id="Layer_1" data-name="Layer 1" xmlns="http://www.w3.org/2000/svg" viewBox="0 0 337.19 180.49"><defs><style>.cls-1{fill:#1c1b1a;}</style></defs><title>AB</title><path class="cls-1" d="M56,78.42,95,23h1.78l1.4,55.42h8.38l-.31,1.09H82.3l.31-1.09h8.46l-.46-21.73H72.75L57.54,78.42h7.84l-.31,1.09h-16l.31-1.09ZM90.14,32,73.53,55.6H90.61L90.3,32Z" transform="translate(-11.68 -23)"/><path class="cls-1" d="M268.4,149.07l.31-1.08h17.46a33.43,33.43,0,0,1,7.26.73A17.75,17.75,0,0,1,299.1,151a11.45,11.45,0,0,1,3.73,3.76,10.73,10.73,0,0,1,.27,9.9,12.7,12.7,0,0,1-2.8,3.57,16.14,16.14,0,0,1-3.84,2.52,30.08,30.08,0,0,1-4.19,1.63,26.65,26.65,0,0,1-3.88.89,19.59,19.59,0,0,1-2.91.27l-.16.16c.67.16,1.73.49,3.18,1a19.48,19.48,0,0,1,4.39,2.29,15,15,0,0,1,3.88,4,10.42,10.42,0,0,1,1.67,6,11.7,11.7,0,0,1-2.29,7.15,19,19,0,0,1-6,5.2,30.62,30.62,0,0,1-8.3,3.14,41.42,41.42,0,0,1-9.2,1.05c-1.92,0-3.79,0-5.63-.12s-3.74-.11-5.71-.11H250.08l.31-1.09h7.84l19.17-53.1Zm.39,53.29c1.13.08,2.27.12,3.41.12a19.09,19.09,0,0,0,8.66-1.82,19.62,19.62,0,0,0,6-4.54,18.1,18.1,0,0,0,3.49-6,19.18,19.18,0,0,0,1.12-6.17,11.42,11.42,0,0,0-.46-3.42,8.94,8.94,0,0,0-1.21-2.52,10,10,0,0,0-1.59-1.79,7.42,7.42,0,0,0-1.7-1.12,9.63,9.63,0,0,0-3.15-1,33.67,33.67,0,0,0-4-.2h-3.95l-10,28.18Q267.08,202.26,268.79,202.36Zm14.28-29.53a14.85,14.85,0,0,0,5.55-1,12.67,12.67,0,0,0,4.39-2.91,13,13,0,0,0,2.87-4.7,18.49,18.49,0,0,0,1-6.29,8.75,8.75,0,0,0-2.41-6.4,9.15,9.15,0,0,0-6.83-2.45h-3.26l-8.54,23.76Z" transform="translate(-11.68 -23)"/><path class="cls-1" d="M179.9,113.46c0-1.2,0-1.82.08-2.26s.05-.62.08-.63.06.18.09.62,0,1.07.08,2.27-.06,1.82-.08,2.27-.06.61-.09.61-.05-.18-.08-.62S179.92,114.65,179.9,113.46Z" transform="translate(-11.68 -23)"/><path class="cls-1" d="M38.87,68.84A63.44,63.44,0,0,0,21.31,96a62,62,0,0,0-3,16.08,59.91,59.91,0,0,0,1.38,16.34,58.16,58.16,0,0,0,5.83,15.37c.67,1.21,1.36,2.37,2.13,3.56s1.54,2.27,2.37,3.36A62.28,62.28,0,0,0,35.43,157,66.21,66.21,0,0,0,64,173.76a60.3,60.3,0,0,0,8.2,1.71c1.38.18,2.79.32,4.16.41.74,0,1.41.07,2.11.08s1.4,0,2.1,0a67.14,67.14,0,0,0,16.69-2.39c11-3,21.23-8.29,30.75-14.65a226.63,226.63,0,0,0,26.91-21.55c8.52-7.77,16.67-16,25-23.93-8.12,8.21-16,16.63-24.33,24.66a228.32,228.32,0,0,1-26.45,22.49c-9.46,6.71-19.78,12.48-31.07,15.9a70.19,70.19,0,0,1-17.43,3c-.74,0-1.48.05-2.22.05s-1.51,0-2.22,0c-1.51,0-3-.15-4.47-.31a62.11,62.11,0,0,1-8.78-1.57,70.65,70.65,0,0,1-31-17.08A64.82,64.82,0,0,1,25.8,154c-.95-1.18-1.84-2.36-2.72-3.63s-1.67-2.51-2.43-3.8a64,64,0,0,1-6.9-16.71,66.16,66.16,0,0,1-2.05-18,68.65,68.65,0,0,1,2.86-17.94A71.11,71.11,0,0,1,33.32,63l0,0A4,4,0,1,1,39,68.76Z" transform="translate(-11.68 -23)"/><path class="cls-1" d="M317.17,161.78A61.06,61.06,0,0,0,337.73,136a60.15,60.15,0,0,0,4.33-16.14,58.43,58.43,0,0,0-.37-16.75,62.63,62.63,0,0,0-14.31-30.3A63.52,63.52,0,0,0,299.3,54a60.7,60.7,0,0,0-16.85-3,63.91,63.91,0,0,0-17.12,1.82c-11.28,2.7-21.87,8.06-31.66,14.48A228.88,228.88,0,0,0,206,89.14c-8.76,7.91-17.16,16.22-25.76,24.32,8.36-8.34,16.52-16.88,25.07-25.06a230.44,230.44,0,0,1,27.23-22.8,126,126,0,0,1,15.3-9.23,87.73,87.73,0,0,1,16.75-6.52,67.24,67.24,0,0,1,17.94-2.41,64.18,64.18,0,0,1,18,2.72A68.15,68.15,0,0,1,347.65,102a64.38,64.38,0,0,1,.94,18.54,66.86,66.86,0,0,1-4.31,18.1A68.64,68.64,0,0,1,322,168.24l0,0a4,4,0,1,1-4.9-6.43Z" transform="translate(-11.68 -23)"/><path class="cls-1" d="M232.22,158.74a192.71,192.71,0,0,1-17.32-15c-11-10.59-32.08-32.91-32.08-32.91-10-8.44-20.79-18.68-31-27.23C146.62,79.23,141.24,75,135.65,71a150,150,0,0,0-17.46-10.73A148.72,148.72,0,0,1,134.4,72.58c5.12,4.45,10,9.16,14.71,14s9.33,9.85,13.95,14.85,14.1,15,14.1,15,23.32,20.91,35.07,30.38a196,196,0,0,0,18.84,13.59,123,123,0,0,0,20.62,10.49A121.61,121.61,0,0,1,232.22,158.74Z" transform="translate(-11.68 -23)"/></svg>